<svg xmlns="http://www.w3.org/2000/svg" width="450" height="100"><path fill="#fff" d="M450 0v100H0V0z"/><path d="M7.451.006v4.386H14.9V.006H7.451zm21.977 0v4.386h-7.452v4.386H14.897v4.386H7.447v4.386H0V30.269h7.453v4.386H14.903v4.386h7.08v4.386H29.434v4.386H36.887v-4.386h7.452V39.04H51.79v-4.386h7.081v-4.386H66.322v-4.386H73.773v-4.386H66.322v-3.947H58.871v-4.386H51.79V8.778H44.339V4.392h-7.452V.006h-7.459zm22.35 0v4.386H58.86V.006H51.778zm29.43 0v4.386h-7.452v4.386H66.303v4.386H73.756v4.386h7.452v3.947h7.453V17.55h7.077v-4.386H103.189V8.778H95.738V4.392h-7.077V.006h-7.453zm29.429 0v4.386H118.09V.006H110.637zm21.979 0v4.386h-7.08v4.386h-7.452v4.386H110.631v4.386h-7.452v3.947H95.728v4.386H103.179v4.386h7.452v4.386H118.084v4.386h7.452v4.386h7.08v4.386H140.069v4.386H132.616v4.386h-7.08v4.387h-7.452v4.386H110.631v4.386h-7.452v3.947H95.728v4.386H103.179v4.386h7.452v4.386H118.084v4.386h7.452v4.386h7.08V100H147.518v-4.387H154.971v-4.386h7.452v-4.386h7.452v-4.386h-7.452v-4.386h-7.452v-4.386H147.518v8.772h-7.449V69.736h7.449V65.35H154.971v-4.386h7.452v4.386h7.452v4.386h7.08v3.947h7.445v4.386h7.452v4.386h7.452v4.386h-7.452v4.386H184.4v4.386H176.949V100h22.355v-4.387H206.383v-4.386h7.443v-4.386H221.279v-4.386h7.446v4.386h7.452v4.386H243.628v4.386h7.078V100h22.353v-4.387H265.608v-4.386H258.157v-4.386H250.706v-4.386H258.157v-4.386H265.608v-4.386H273.059v-3.947H280.138V65.35H287.589v-4.386H295.04v4.386H302.491v4.386H309.942V82.455H302.491v-8.772H295.04v4.386H287.589v4.386H280.138v4.386H287.589v4.386H295.04v4.386H302.491V100h14.902v-4.387H324.472v-4.386H331.923v-4.386H339.374v-4.386H346.825v-4.386H354.276v-4.386H346.825v-3.947H339.374V65.35H331.923v-4.386H324.472v-4.387H317.393v-4.386H309.942v-4.386H317.393V43.42H324.472v-4.386H331.923v-4.386H339.374v-4.386H346.825v-4.386H354.276V21.49H346.825v-3.947H339.374v-4.386H331.923V8.772H324.472V4.386H317.393V0H302.491v4.386H295.04v4.386H287.589v4.386H280.138v4.386H287.589v3.947H295.04v4.386H302.491v-8.333H309.942V30.263H302.491v4.386H295.04v4.386H287.589v-4.386H280.138v-4.386H273.059v-4.386H265.608v-4.386H258.157v-3.947H250.706v-4.386H258.157V8.772H265.608V4.386H273.059V0h-22.353v4.386h-7.078v4.386H236.177v4.386h-7.452v4.386h-7.45v-4.386h-7.452V8.772h-7.453V4.386H199.291V0h-22.355v4.386h7.45v4.386H191.839v4.386h7.452v4.386h-7.452v3.947H184.386v4.386h-7.45v4.386h-7.08v4.386H162.405v4.386h-7.452v-4.386H147.5v-4.386h-7.45V17.544h7.45v8.333H154.953v-4.386h7.452v-3.947H169.856v-4.386H162.405V8.772h-7.452V4.386H147.5V0h-14.903v.006h.019zm29.801 0v4.386h7.452V.006h-7.452zm117.715 0v4.386h7.452V.006h-7.452zm51.78 0v4.386H339.363V.006H331.912zm29.429 0v4.386H354.262v4.386H346.811v4.386H354.262v4.386H361.341v3.947H368.792V17.55H376.243v-4.386H383.694V8.778H376.243V4.392H368.792V.006H361.341zm29.801 0v4.386h7.078V.006h-7.078zm21.979 0v4.386H405.67v4.386H398.219v4.386h-7.078v4.386H383.69v3.947H376.239v4.386H383.69v4.386H391.141v4.386H398.22v4.386h7.45v4.386H413.121v4.386h7.452v-4.386h7.449V39.04h7.078v-4.386h7.449v-4.386H450V17.549H442.549v-4.386H435.098V8.778H428.019V4.392H420.568V.006h-7.447zm21.978 0v4.386h7.45V.006h-7.45zM81.208 8.776h7.453v4.386h-7.453V8.776zm280.133 0H368.792v4.386H361.341V8.776zM29.428 13.163H36.881v4.386h7.452v3.947H51.784v4.386H44.333v4.386h-7.452v4.386H29.428v-4.386h-7.452v-4.386H14.897v-4.386H21.976v-3.947h7.452v-4.386zm383.693 0h7.452v4.386h7.449v3.947h7.078v4.386H428.021v4.386H420.57v4.386H413.119v-4.386H405.668v-4.386H398.217v-4.386H405.668v-3.947h7.452l.001-4.386zM29.428 21.495v4.386H36.881v-4.386H29.428zm383.693 0v4.386h7.452v-4.386h-7.452zM81.208 25.881v4.386h-7.452v4.386H66.303v4.386H73.756v4.386h7.452v4.386h7.453v-4.386h7.077v-4.386H103.189v-4.386H95.738v-4.386h-7.077v-4.386h-7.453zm125.165 0H243.628v4.386h7.078v4.386H258.157v4.386H265.608v4.386H273.059v4.386H280.138v4.386H273.059v4.386H265.608v4.387H258.157v4.386H250.706v4.386h-7.078v3.947H206.37v-3.947H199.291v-4.386h-7.452V60.97H184.386v-4.387h-7.45v-4.386h-7.08v-4.386h7.08v-4.386h7.45v-4.386H191.839v-4.386h7.452v-4.386H206.37l.003-4.386zm154.968 0v4.386H354.262v4.386H346.811v4.386H354.262v4.386H361.341v4.386H368.792v-4.386H376.243v-4.386H383.694v-4.386H376.243v-4.386H368.792v-4.386H361.341zm-140.066 5.263v4.386h7.45v-4.386h-7.45zM81.208 34.653h7.453v4.386h-7.453v-4.386zm280.133 0H368.792v4.386H361.341v-4.386zm-162.045 4.386v4.386H206.375v4.386H213.826v4.386H206.373v4.386H199.294v4.387h14.532v-4.387H221.279v-4.386h7.446v4.386h7.452v4.387h14.529v-4.387h-7.078v-4.386H236.177v-4.386H243.628v-4.386h7.078v-4.386h-14.529v4.386h-7.452v4.386h-7.45v-4.386h-7.452v-4.386H199.296zM0 47.811v4.386h14.903v-4.386H0zm51.778 0v4.386H66.309v-4.386H51.778zm51.409 0v4.386h14.904v-4.386h-14.904zm81.208 0v4.386H191.849v-4.386H184.395zm73.759 0v4.386H265.605v-4.386H258.154zm73.758 0v4.386h14.902v-4.386H331.912zm51.78 0v4.386h14.529v-4.386h-14.529zm51.407 0v4.386H450v-4.386h-14.901zM29.428 52.195v4.386h-7.452v4.387H14.897v4.386H7.447v4.386H0V82.459h7.453v4.386H14.903v4.386h7.08v4.386H29.434V100H36.887v-4.387h7.452v-4.386H51.79v-4.386h7.081v-4.386H66.322v-4.386H73.773v-4.386H66.322v-3.947H58.871V65.35H51.79v-4.386H44.339v-4.387h-7.452v-4.386H29.434v.004h-.006zm51.78 0v4.386h-7.452v4.387H66.303v4.386H73.756v4.386h7.452v3.947h7.453V69.74h7.077v-4.386H103.189v-4.386H95.738v-4.387h-7.077v-4.386h-7.453zm280.133 0v4.386H354.262v4.387H346.811v4.386H354.262v4.386H361.341v3.947H368.792V69.74H376.243v-4.386H383.694v-4.386H376.243v-4.387H368.792v-4.386H361.341zm51.78 0v4.386H405.67v4.387H398.219v4.386h-7.078v4.386H383.69v3.947H376.239v4.386H383.69v4.386H391.141v4.386H398.22v4.386h7.45v4.386H413.121V100h7.452v-4.387h7.449v-4.386h7.078v-4.386h7.449v-4.386H450V69.736H442.549V65.35H435.098v-4.386H428.019v-4.387H420.568v-4.386h-7.449v.004h.002zM81.208 60.967h7.453v4.386h-7.453v-4.386zm280.133 0H368.792v4.386H361.341v-4.386zm-140.066 3.508v4.386h7.45v-4.386h-7.45zm-191.847.878H36.881v4.386h7.452v3.947H51.784v4.386H44.333v4.386h-7.452v4.386H29.428v-4.386h-7.452v-4.386H14.897v-4.386H21.976v-3.947h7.452v-4.386zm383.693 0h7.452v4.386h7.449v3.947h7.078v4.386H428.021v4.386H420.57v4.386H413.119v-4.386H405.668v-4.386H398.217v-4.386H405.668v-3.947h7.452l.001-4.386zM29.428 73.685v4.386H36.881v-4.386H29.428zm383.693 0v4.386h7.452v-4.386h-7.452zM81.208 78.07v4.386h-7.452v4.386H66.303v4.386H73.756v4.386h7.452V100h7.453v-4.387h7.077v-4.386H103.189v-4.386H95.738v-4.386h-7.077v-4.386h-3.729l-3.724.001zm280.133 0v4.386H354.262v4.386H346.811v4.386H354.262v4.386H361.341V100H368.792v-4.387H376.243v-4.386H383.694v-4.386H376.243v-4.386H368.792v-4.386h-3.726l-3.725.001zM81.208 86.842h7.453v4.386h-7.453v-4.386zm280.133 0H368.792v4.386H361.341v-4.386zM7.451 95.613V100H14.9v-4.387H7.451zm44.327 0V100H58.86v-4.387H51.778zm58.859 0V100H118.09v-4.387H110.637zm51.78 0V100h7.452v-4.387h-7.452zm117.715 0V100H287.583v-4.387H280.132zm51.78 0V100H339.363v-4.387H331.912zm59.23 0V100h7.078v-4.387h-7.078zm43.957 0V100h7.45v-4.387h-7.45z" fill="#c00"/></svg>